<?xml version="1.0" encoding="UTF-8"?><svg id="_레이어_2" xmlns="http://www.w3.org/2000/svg" viewBox="0 0 498.211 126.946"><defs><style>.cls-1{fill:#3a3a3a;}</style></defs><g id="_레이어_1-2"><path class="cls-1" d="M56.344,60.708c-.859.445-1.689.282-2.44.76-.751.151-1.425-.554-1.972-1.034-.346-.814-.441-.502-.392-1.547.049-.459.24-1.408.464-1.657.509-1.294,1.144-2.138,1.785-3.376.321-.309.644-.821.953-1.419.309-.545.606-1.079.873-1.939.268-.118.506-1.093.698-1.799.192-1.814.337-2.249.419-1.88.082-1.184.1-.117.039-1.822-.061-.455-.203-.764-.441-1.895-.389-.945-.87-2.489-1.417-2.305-.547.204-1.161-1.389-1.817-1.231-.656-.676-1.353-.835-2.067-.329-.714.176-1.445-.16-2.168.472-.723-.523-1.437,1.234-2.118.966-.681,1.076-1.329-.677-1.919,1.616-.59,1.138-1.121.539-1.569,1.927-.448.831-.813-.746-1.07,1.853-.261.93-.496.84-.702,2.105-.207.639-.386,1.848-.537,2.255-.151.549-.274,1.476-.369,2.352-.095,3.468-.161,2.241-.199,2.405-.025.008-.038,1.586-.037,1.622,0,1.086.013,2.529.04,1.587.026.048.065,1.821.117,1.457.052.474.117-.111.195,1.655.078,1.383.169,1.716.274,1.496.105-1.478.222,1.384.353,1.41.184.468.405,1.727.663,1.91.258,1.052.553,1.436.884,1.824.331,1.484.698.403,1.1,1.589.402.12.839,1.413,1.309,1.624.471,1.189.976,1.53,1.513,1.337.538-.009,1.109.066,1.712.996.584.617,1.191.536,1.814.637.622.189,1.26.27,1.903.396.643-.087,1.293-.415,1.939-.008.647.669,1.29.53,1.922-.26.632.083,1.252-.021,1.852-.388.6-.222,1.179-1.119,1.729-1.081.55-1.016,1.071-1.209,1.553-.933.482-.391.927-.277,1.324-1.638.312-1.347.595-1.237.853-1.194.258-1.032.491-.413.704-1.419.213.42.406-.528.584-1.194.178-1.485.34-1.243.492-1.68.152-.784.293-1.766.428-1.534.135.838.264-1.409.393-1.441.179-.061.359-.556.537-1.989.178-.987.355-3.361.529-2.178.174-.09.345-.489.512-1.91.167-1.402.33-2.455.487-2.276.157-.474.308-2.296.453-2.472.144.048.281-1.391.41-1.738.129.273.249-.194.359-1.945.11-.133.21-1.557.299-2.293.089-.763.166-2.063.23-2.121.064-1.559.116-1.944.153-2.152.035-.47.047-2.415.033-2.043-.014-2.432-.053-1.01-.121-2.094-.034.438-.074-.616-.123-1.628-.048-.578-.103-1.574-.166-.582-.126-.245-.282-2.004-.471-1.903-.189-1.33-.41-1.431-.666-1.961-.256-1.216-.548-2.824-.876-1.851-.329-.037-.694-.939-1.1-1.793-.405.714-.851-1.949-1.338-1.444-.487-.586-1.016-.178-1.589-1.137-.573-.794-1.191-.862-1.855-1.249-.666.879-1.346-1.781-2.036-.962-.69-.558-1.391-.225-2.099-.348-.708.857-1.423-.987-2.141-.29-.719-.795-1.441-.673-2.164.021-.723-.497-1.446,1.366-2.167.639-.721.534-1.438-.25-2.15.003-.712.268-1.417.024-2.113.164-.696,1.389-1.382.578-2.056,1.259-.673-1.164-1.334,1.533-1.979.971-.644,1.44-1.273.082-1.882,1.102-.609,2.17-1.198.055-1.765,1.379-.566-.14-1.11.796-1.628,1.214-.286.893-.566,2.436-.841,1.776-.275.269-.544-.588-.808-.55-.528-.116-1.035,1.205-1.52,2.11-.486.057-.951,1.41-1.396,2.001-.445.351-.87,1.763-1.276,1.742-.406.435-.792,2.428-1.16,1.606-.184-.315-.363,1.976-.538,1.72-.175,1.896-.345,1.865-.511.734-.332.716-.645,1.292-.942,2.121-.297,2.149-.576,2.798-.839,2.167-.263.889-.509,1.741-.74,2.176-.231-.075-.446,2.377-.646,2.251-.164.994-.321,2.362-.47,2.134-.149.609-.29,1.959-.422,1.595-.133,1.446-.258-.742-.374,1.947-.116-.27-.224.467-.324,1.888-.099,1.935-.19.998-.272,1.948-.082.749-.155.877-.219,1.964-.064-.108-.119,1.822-.165,2.013-.046,1.41-.082.896-.109,1.949-.036.578-.055.926-.056,2.655-.001.69.015,1.943.05,2.656.034.915.087,2.354.158,2.48.071.465.161.595.271,2.802.109.139.238,3.19.387,2.661.149,2.131.317,2.888.506,2.525.189.359.398,1.678.629,2.457.23.504.482,1.44.755,2.567.273.627.568,1.904.885,2.535.317,1.503.656,3.367,1.018,2.261.355.509.742,2.277,1.156,2.288.415,1.026.859,1.102,1.33,2.117.471,1.229.969.131,1.493,1.959.524.358,1.073,1.677,1.646,1.982.573.632,1.169.561,1.788,1.68.619-.067,1.259.955,1.92,1.604.661,1.166,1.342,1.442,2.042,1.352.7.494,1.418,1.899,2.154,1.087.735-.323,1.488,1.949,2.255.842.767.492,1.55-1.211,2.346.559.531-.251,1.067-.161,1.61.151.542.354,1.09.013,1.643.113.553.905,1.11-.128,1.672-.097.562-.431,1.129.668,1.699-.241.571-.437,1.145.628,1.723-.412.578-.432,1.159.522,1.744-.584.788.136,1.549-1.443,2.285-1.06.736-.72,1.447-.932,2.135-1.245.688-.584,1.352-2.176,1.994-1.611.642-1.316,1.262-.297,1.862-1.542.6-1.102,1.179-2.287,1.739-1.803.56-.159,1.101-.781,1.625-1.981.523-.712,1.029-.363,1.519-2.058.49-.864.964-.084,1.423-2.143.459-.076.904-1.192,1.335-2.19.432-1.605.85-1.162,1.257-2.213.36.793.716-2.168,1.064-1.857.349.02.691-.327,1.026-2.117.167-.405.332.253.495-.027.163-.312.323-1.944.482-1.931.316.186.623-1.2.918-2.116.295-.274.579-1.209.849-2.088.27.189.528-1.405.77-2.089.242-1.918.47-.979.681-1.971.211-.376.405-1.934.582-2.311.176-1.604.334-1.677.473-2.366.138-1.325.257-3.349.353-2.022.09-1.038.162-1.679.232-2.055.07-1.434.137-.538.22-2.114.082-.255.179-1.267.308-2.01.128-.59.288-2.123.496-2.08.208.561.476-.827.802-1.888.326.476.711-.003,1.153-1.829.442.909.941-1.277,1.495-1.454.554.452,1.164-.161,1.829-.904.757.591,1.518-.746,2.265-.402.747-1.107,1.478-.009,2.175.713.696,1.183,1.358,1.625,1.964,1.169.606.597,1.157,2.142,1.632,1.833.475,1.607.875,1.305,1.179,2.112.304.102.513,1.991.605,2.324.093.722.105-.355.05,2.411-.055,3.116-.178.196-.356,2.254-.178.487-.411,1.804-.687,2.5-.276-.424-.595,1.247-.943,1.975-.349.581-.728,2.247-1.124,2.046-.396.196-.811,1.441-1.23,2.162-.442-.502-.891.432-1.348,2.07-.456.089-.919.514-1.388,2.144-.468-.283-.942,2.411-1.42,2.141-.478,1.762-.96.821-1.445,1.993-.485.957-.973,1.299-1.462,1.927-.245-.104-.49.045-.735.186-.245-.104-.491.592-.736,1.977-.491.831-.983,1.761-1.473,2.051-.49.994-.98,1.372-1.467,2.033-.487.245-.972.957-1.453,1.973-.481,1.583-.959,1.161-1.432,2.141-.473,1.095-.941,1.819-1.403,2.087-.462.012-.918-.033-1.366,2.094-.448.586-.889.824-1.321,2.127-.432,1.421-.856.844-1.269,2.158-.413,2.071-.817-.246-1.209,2.194-.392.719-.773,1.622-1.141,2.233-.341.902-.672,2.429-1.002,2.129-.33,1.152-.66,1.841-.996,2.09-.337.411-.681.127-1.041,2.102-.36.355-.736.971-1.137,2.007-.4.577-.825.222-1.283,1.916-.458,1.74-.948.651-1.48,1.773-.273.711-.554,1.317-.843,1.352-.289,1.244-.586.246-.89.349-.608.226-1.244.108-1.904,1.287-.33.019-.666-.023-1.008.129-.341-.171-.688-1.389-1.04,1.038-.352,1.109-.708-.263-1.069-.138-.361.839-.726.32-1.095,1.126-.184,1.722-.37,1.697-.556,1.475-.186-.665-.373-.615-.561-1.266-.375-1.282-.754-.054-1.135.658-.381,1.446-.765-1.478-1.15-.224-.386-1.311-.773-.216-1.162.87-.778.606-1.561.072-2.345.576-.784.216-1.569-.063-2.35.487-.712-.84-1.427,1.647-2.144.364-.717-1.052-1.435-.109-2.155.37-.72-.12-1.441.604-2.164.253-.722.522-1.446-.1-2.17.262-.724-1.161-1.448,1.214-2.173.156-.725.37-1.449-1.813-2.174.077-.483-.52-.966-.201-1.448-.137-.483.175-.965-1.028-1.447.105-.482.481-.963.965-1.444.026-.481.041-.961-.593-1.441-.23-.48.515-.959.624-1.437-.127-.478.205-.956-.05-1.432-.268-.72-.195-1.434-1.144-2.14-.487-.706-.574-1.405.387-2.095-.513-.69-.877-1.372-.995-2.043-.673-.672.785-1.333-1.459-1.984-.839-.651.015-1.29.265-1.917-.791-.627-.382-1.242-1.534-1.843-1.245-.601-.926-1.188-1.207-1.761-1.221-.573.466-1.13.179-1.672-1.354-.542-.594-1.067-.459-1.575-1.412-.254-.949-.504-2.184-.749-2.017-.245-.065-.486-.327-.722.302-.53-1.216-1.022-.275-1.478-1.887-.228.912-.448-.003-.659-.121-.211-.319-.413-1.304-.608-1.992-.194.251-.381.03-.559-.585-.178-.682-.349-1.278-.512-1.559-.326-.401-.623-.972-.892-2.163-.269-1.225-.512-2.601-.73-2.46-.218-.86-.412-1.974-.584-2.081-.172-.708-.323-.744-.455-2.297-.132-1.431-.245-1.725-.343-2.409-.097,1.336-.179-2.007-.247-2.28-.068-1.906-.123-2.116-.167-2.518-.022-2.165-.042-.947-.059-1.071-.017-.675-.032.558-.045-1.274-.026-1.092-.045-2.039-.058-2.474-.007-1.613-.012,1.676-.017.143-.002.335-.004-.829-.006-.151-.002.244-.004-.64-.005-2.232-.003-.771-.006-1.611-.008-2.204-.002-.937-.005-.926-.007-.324-.003-1.057-.002-2.36.003-2.315.005.592.013-1.241.025-.088.012-1.689.027-2.351.046-2.358.019-1.451.042-.165.068-.495.026-.774.056-.847.089-2.316.033.095.07-.429.11-.28.04-.085.084.607.132-.326.047-.513.098-1.958.153-2.309.054-1.892.112-1.769.174-2.419.061.984.126.671.194-.128.068-2.123.14-1.253.215-2.155.075-.111.154.345.236-.484.082.491.167-1.356.256-1.935.089-.38.181-1.009.277-.636.191-1.067.396.063.614-2.552.218.501.45-2.161.695-2.596.245-.968.503-1.554.774-2.443.271-1.406.556-1.123.853-2.537.149.963.301-.377.456-.314.155-.484.313-.678.475-2.086.323-2.328.659-1.89,1.008-2.451.349-.856.71-1.536,1.084-2.364.374-.228.76-.376,1.159-2.344.399-2.023.81-2.307,1.233-2.331.423-.04.859-2.145,1.307-2.126.448-2.207.908-.766,1.38-2.389.472.704.956-2.662,1.451-2.152.248-1.308.499-1.256.752-1.491.254-1.264.51-.742.77-.693.405-.555.832-.558,1.28-1.697.224-.711.453-1.407.687-2.003.234-.959.473-.792.717.246.488-1.297.995-.643,1.521-1.959.526-.216,1.07.33,1.63-1.698.561-.304,1.139-1.957,1.732-1.6.593-1.365,1.203-1.193,1.826-2.127.624-1.525,1.262-1.752,1.913-1.96.651-.542,1.315-.21,1.992-1.705.676-.299,1.364-.876,2.063-1.457.349-.236.701.39,1.056-.896.355-1.075.712-1.44,1.071-1.117.359.611.721-.303,1.085-.39.364.38.73-.2,1.098-1.271.736-.283,1.48-.848,2.232-1.481.751-.562,1.509-.469,2.273-1.406.764-.514,1.533-.964,2.306-1.274.773.639,1.551-.714,2.332-1.098.781-.555,1.565-.503,2.35-.987.786-.032,1.573-.176,2.361-.703.788.578,1.576.339,2.364-.655.788-.638,1.574.053,2.359-.537.785-.108,1.568-.621,2.347.039.78.91,1.556.094,2.327.022.772.58,1.539.785,2.3.473.733,1.908,1.448.461,2.143.659.695.6,1.371.516,2.023.957.435.146.86.379,1.275.761.415.348.818,1.08,1.211.914.392.551.773.902,1.142,1.397.369.78.725.005,1.069.654.344.958.674,1.335.991,1.264.317.943.62.41.909,1.076.509,1.554.981,1.492,1.418,2.083.437-.417.838,2.132,1.206,2.43.307.253.591.777.853,2.146.262,1.317.502.808.722,1.859.219,1.443.418,1.556.598,2.068.179.579.339.137.481,2.104.142.95.265,1.259.372,2.134.107,1.096.196,2.079.27,2.157.074.723.132,1.86.175,2.051.043.976.072,1.093.088,2.307.015.557.017,1.733.007,2.252-.01.371-.032,1.184-.066,2.123-.033-.137-.077,2.019-.131,2.189-.054,1.149-.118,2.413-.19,2.154-.087,1.037-.186,2.041-.295,2.569-.109.902-.228,3.325-.356,2.528-.125.698-.258,2.323-.398,2.478-.141,1.495-.289,1.863-.446,2.417-.157.841-.321,2.322-.494,2.302-.086-.415-.175-.159-.265.272-.09.689-.183,1.413-.277,2.284-.189.681-.385,2.081-.59,2.759-.205-.159-.417,1.906-.638,2.054-.221,1.514-.45,1.078-.687,2.343-.237-.45-.482,1.021-.735,2.415-.253.73-.514,1.038-.784,2.502-.269-.256-.547,1.647-.833,2.193-.286,1.633-.58,2.606-.881,2.482-.302.383-.612,1.51-.931,2.141-.282-.286-.574,1.181-.88,2.028-.306-.178-.627.619-.967,1.997-.34.099-.7,1.387-1.084,1.987-.384.957-.793.812-1.231,1.751-.438,1.583-.906.182-1.408,1.735-.502.904-1.039,1.06-1.615,1.396-.618-.165-1.27,1.571-1.952,1.297-.681-.099-1.39.139-2.12.985-.73.865-1.481.397-2.246.73-.765,1.37-1.543-.365-2.328.361-.785.249-1.576-1.096-2.367.246-.79.203-1.58.383-2.362-.232-.279,1.02-.559,1.259-.837,1.051-.279.064-.557.341-.835-1.287-.555-.613-1.107-.095-1.651-.369-.545,1.517-1.082.108-1.609-.511-.527-.35-1.043-.413-1.544-.662-.502,1.295-.989.085-1.458-.824-.469-2.128-.92-.878-1.35-.996-.515.469-.992.287-1.433-1.452-.441-.793-.847-.688-1.222-1.536-.375-2.896-.718-.117-1.033-1.686-.315-.207-.603-1.057-.866-1.878-.263-2.577-.502-.633-.721-1.908-.109.893-.214-1.819-.313-1.676-.1-.745-.194-1.365-.285-.264-.211.513-.404-1.057-.579-2.28-.175-.444-.332-.196-.473-2.301-.141.27-.265-3.992-.375-2.342-.109,1.1-.204-3.136-.285-2.31-.04-.156-.077-.046-.111.212-.034.327-.064-.336-.091-2.602-.054-1.697-.096-.677-.127-2.309-.021.402-.036-.594-.047-1.523-.011-1.18-.017-.686-.019-1.623-.002-.471,0,.602.006-1.574.006.901.016-1.767.029-1.574.007.639.014-1.217.022-1.278.008-1.09.017-1.74.027-.294.02-.971.042-1.1.068-1.57.032-.454.07-1.348.116-2.073.046.002.101.483.169-2.192.068-.034.149-1.542.247-2.196.098.669.213-1.007.348-2.375.136-1.14.292-1.763.473-2.212.181-1.214.387-.724.622-2.326.235-.171.498-.92.795-2.169.296-1.064.625-2.023.991-2,.366-.448.768-2.496,1.211-1.425.443.083.927-1.888,1.455-2.036.528.789,1.101-1.35,1.723-1.574.622-.394,1.292.602,2.015-.842.526.38,1.057-1.005,1.59-.833.533-1.147,1.069-.015,1.606.055.537.518,1.075,1.207,1.613-.138.538.909,1.075.809,1.61.291.535-1.736,1.068-.307,1.597-.077.529.081,1.055-1.065,1.576,1.001.781-.256,1.55.629,2.302,1.056.752.962,1.487.727,2.201,1.425.713.637,1.404,1.778,2.067,1.645.663-.587,1.299,1.13,1.902,1.669.603.963,1.173.89,1.705,1.774.532.044,1.026.866,1.476,1.831.304-.345.6-1.396.876,1.42.276,1.29.533,1.48.759,1.137.226.49.422-.449.577,1.565.155-.113.268,1.086.329,1.289.043.747.001,2.298-.114,1.45-.115,1.123-.303,1.027-.552,1.487-.249.843-.559-.057-.917,1.58-.359,1.507-.766,1.195-1.21,2.298-.444,1.33-.924.873-1.43,1.949-.505-.559-1.035.922-1.576,1.866-.542.896-1.096.77-1.651,1.571-.554.913-1.109.928-1.652,1.179Z"/><path class="cls-1" d="M102.782,11.786c-.526.42-1.004,1.29-1.426,1.705-.422.022-.787,1.676-1.087,1.783-.2.239-.37.821-.509,1.303-.139,1.019-.245,1.244-.317,1.441-.072.473-.109.475-.109,1.802,0-.54.038-.007.115,1.284.078.617.195,1.165.356,1.611.161.63.364,2.95.613,1.823.201-.665.416-.164.636,1.532.22,1.032.446,2.579.668,1.355.222-.052.44.426.646,1.548.206,1.311.4,1.166.572,1.361.172.795.324.823.445,1.697.121,2.857.212,1.804.265,1.339.059,1.034.073,1.118.057,1.787-.016.929-.063,2.085-.127,1.736-.064-.11-.145,1.99-.228,1.755-.084.15-.17.348-.245,1.757-.075.477-.14,2.774-.179,1.764-.039-.416-.053-.145-.029,1.776.032.662.09,2.27.168,2.204.078,1.556.177,3.935.291,2.272.113-.566.241.877.378,2.158.137-.601.282,2.09.43,2.206.148.422.299,2.392.447,2.242.148.173.292.213.428,2.095.136-.618.262.748.374,2.26.112-1.06.208,1.107.284,2.138.076.972.131,1.605.159,2.308.028,1.157.03,1.27,0,2.236-.03,1.827-.075,2.44-.137,2.269-.062-.329-.139,1.103-.232,2.173-.093,1.961-.202.797-.327,2.172-.125.929-.266,2.39-.422,2.222-.156,2.234-.328,3.327-.516,2.168-.188,2.321-.391,1.77-.61,2.144-.146,1.269-.299-1.705-.458,1.432-.16.97-.326,1.236-.5,1.38-.173.147-.354.286-.541,1.384-.187-.104-.381,2.763-.582,1.367-.201-.805-.408,1.239-.623,1.349-.214.262-.436,3.402-.664,1.33-.17.326-.343,1.354-.519,1.947-.176.426-.355.158-.538.086-.364,1.171-.739,1.926-1.123,1.813-.192-1.086-.385.333-.581-.212-.195,1.253-.393.997-.591,2.041-.397.959-.799.948-1.204,1.906-.405,1.084-.811,1.222-1.218,1.864-.406.781-.812,1.569-1.215,1.836-.403-.494-.802,1.902-1.194,1.904-.393-.395-.779.652-1.157,1.842-.377.631-.745,2.596-1.101,1.769-.356.647-.7,3.188-1.029,2.101-.137,1.152-.271,1.878-.403,2.114-.132.346-.261.68-.388-.451-.253-.164-.497,3.522-.733,1.688-.235,3.04-.462-.89-.682,1.8-.22-.075-.433-.576-.639,1.637-.207,1.211-.408-.475-.604,1.626-.098-.837-.195-.374-.291-.472-.096-.274-.191.424-.285,2.34-.094-2.206-.188.367-.28-.121-.093-.007-.185,2.221-.276,1.915-.091-.294-.182.61-.273.77-.091-.05-.181,1.946-.271.956-.12.428-.239-.158-.287.368-.048.689-.025,1.469.14,2.035.207,1.411.59-.33,1.047,1.044.457.125.987-1.23,1.488.517.358,2.395.717,2.047,1.076.979.36-1.742.72-.061,1.082-.451.361.994.724.061,1.086,1.04.363.055.726.211,1.091-.737.728-.002,1.459.499,2.191.339.732.886,1.466-1.498,2.201.09.735.837,1.471-.449,2.207.138.736.078,1.472-.702,2.207-.11.735-.277,1.47.28,2.203.341.733.227,1.465-.309,2.195-.714.73-.344,1.457.265,2.181-.115.724-1.485,1.446.024,2.164-.661.733.392,1.502.104,2.176-.717.337.026.65.969.924.349.273-.392.506-.773.683-1.812.219-.365.328-1.206.372-2.181.044-.558.022-.522-.022-.545-.061-1.837-.158-2.057-.281-1.985-.123-.41-.271-.794-.432-1.812-.162-.758-.337-3.119-.515-1.8-.178-.788-.358-.995-.53-1.952-.171-1.126-.334-1.323-.475-2.173-.142-2.641-.263-2.16-.353-1.575-.09-1.112-.147-2.639-.162-1.787-.014.505.015-2.47.098-1.999.064-.882.159-1.275.279-1.435.12-1.733.266-2.259.432-1.394.166.297.352-2.049.552-1.359.2-.73.415-1.2.638-1.331.223.514.456-.173.691-1.167.235-.099.474-1.486.71-1.436.402-.502.766-1.985,1.098-2.225.166-.324.323-2.83.472-1.883.15-.491.291-.436.426-.4.135.227.262-1.227.383-2.179.121-.605.236.595.344-.155.217-.131.411-.26.586-2.376.175-.299.331-1.685.472-2.631.071-2.013.138-1.985.203-1.745s.126.692.185-.475c.118-1.716.227-.694.331-2.365.052-2.036.103-3.038.153-2.751.05-1.734.1.601.15.186.099.49.199-3.432.303-2.75.104-1.628.214-2.143.332-2.2.119-.182.247-2.982.39-2.444.143.212.3-1.529.476-2.464.176-1.045.372-1.988.591-2.419.219-1.529.462-1.204.734-2.386.208-1.152.416-.297.626-1.808.209-1.345.419-1.712.629-1.804.21-.039.42-1.604.63-1.802.21-1.688.419-.52.628-1.799.209-1.048.417-1.925.624-1.872.207.706.413-1.206.617-1.722.204-.09.407-1.523.607-1.795.2.111.399-1.383.594-1.794.261-.42.518-1.888.768-2.373.251-1.671.496-1.764.735-2.412.119-.179.237-.926.353-.734.116-.985.23-.751.342-1.935.224-1.348.441-1.644.649-2.123.208-.203.407-1.099.597-2.13.19-1.001.369-2.525.538-2.677.169.701.327-1.155.473-2.352.146-1.74.28-1.273.401-2.478.061-1.23.118.949.172-1.771.054-1.528.105-.244.152-1.1.094.672.174-.901.239-1.99.032.537.061-.747.086-.256.025-.033.046-1.575.063-2.063.017.612.03-.74.038-1.918.009-.666.013-1.412.013-.663,0-.131-.017-1.146-.052-2.58-.018-.397-.04-.655-.067-1.99-.027-.578-.058-2.016-.095-.378-.052.162-.166,1.588-.334-1.539-.168-4.088-.391-1.563-.661-1.908-.27-.325-.588-.932-.947-1.526-.359.604-.759-1.516-1.193-1.421-.434-.634-.902-.733-1.398-1.17-.496-1.032-1.019-1.775-1.562-.883-.625.424-1.274-1.213-1.938-.925-.665-.721-1.345.372-2.031.168-.686-.717-1.379.232-2.068-.339-.689-.627-1.376-.754-2.05.801-.61.771-1.229.505-1.852.724-.622-.737-1.248.012-1.873.175-.625.313-1.248.884-1.864,1.192-.617,1.166-1.227-.326-1.826.162-.599.186-1.186.773-1.757.518-.571.201-1.126.251-1.659,1.301-.533.724-1.045,1.322-1.531,1.496-.486.716-.945-.034-1.373.799Z"/><path class="cls-1" d="M164.45,24.099c.585-1.149,1.173-.379,1.764-.605.591.853,1.186-.433,1.784-.65.598-.586,1.199-.217,1.804-.588.605-.902,1.212-.885,1.824-.304.611-.367,1.226-.871,1.844.091.618.895,1.24.04,1.865-.471.799-.287,1.6-.119,2.403-.333.803.111,1.607.363,2.413.544.806-.01,1.612-.732,2.419.132.807-.097,1.615-.108,2.422.497.807-.469,1.615.671,2.421.38.806.168,1.612,1.307,2.416.374.804-.737,1.607-1.087,2.408.331.801-.11,1.6-.203,2.396.251.681-.818,1.36-.145,2.036.1.676.146,1.351-.225,2.023-.067.673-.024,1.344-.047,2.013-.053.67-.782,1.338.135,2.006-.279.668-.198,1.335-.51,2.002-.186.667-.492,1.334.183,2.001-.137.667,1.099,1.335-.198,2.003-.041.668-.37,1.338-.992,2.008.102.492.482.998.614,1.513.055.515.063,1.038.528,1.564.299.526.437,1.054-.163,1.578.206.524.951,1.044.37,1.554.416.51.573,1.01.327,1.493.55.484.57.951.5,1.395.515.718.271,1.276,1.313,1.702,1.255.426.431.718,1.917.904,1.554.186.952.264.386.262,1.942-.002,1.547-.086,1.362-.224,1.798-.138.505-.332,1.586-.554,1.979-.222,2.727-.473,2.15-.728,2.168-.254.832-.511,1.841-.745,1.726-.234.86-.445,1.135-.607,2.301-.161,1.164-.322,1.804-.456,1.63-.135,1.67-.243.6-.3,2.244-.057,1.673-.062,1.315.009,2.14.071.006.219,1.632.47,1.645.272.503.64,1.357,1.086,1.761.445,1.161.968,1.002,1.549,1.452.581.265,1.221,1.235,1.9.962.679,1.355,1.399.506,2.139.931.74.751,1.501,1.266,2.264.709.763-.241,1.529-.079,2.277-.005.749-.126,1.481-.143,2.178-.094.697.751,1.358.901,1.965-.261.738.855,1.462-.705,2.167-.611.705.65,1.389-.82,2.048-1.084.659-.298,1.291-1.134,1.891-1.66.6.106,1.167-1.913,1.695-1.186.528-.948,1.017-.846,1.46-1.602.443-.559.841-1.067,1.188-2.101.339-.248.612-1.434.829-1.976.217.622.377-1.67.489-1.98.112-.217.175-1.384.199-1.984.023-2.262.007.178-.041-1.987-.048-.786-.128-.69-.23-1.954-.103.031-.228-2.311-.369-2.031-.14-.17-.296-1.571-.457-1.643-.162-.208-.329-1.187-.495-2.355-.166-1.752-.329-2.841-.482-2.028-.153.011-.296-1.076-.419-1.982-.122-.866-.203-1.47-.256-2.056-.053.194-.078-2.304-.088-2.175-.011-.697-.007-2.574-.002-2.245.005.088.01-.246.003-2.266-.007-.914-.027-.972-.072-2.36-.046-.398-.117-2.221-.229-2.04-.111-.257-.262-1.606-.466-2.357-.204-.982-.461-1.141-.784-1.54-.323-1.289-.713-1.915-1.183-1.65-.47-1.088-1.02-.281-1.663-1.352-.546-.619-1.119-1.323-1.712-.952-.297-.147-.599,1.227-.905.734-.307-.219-.618-1.123-.933-1.541-.63-.436-1.277-.061-1.934-.673-.328.92-.66.513-.993.513-.333-.371-.668-1.006-1.005-1.065-.673.284-1.352-.436-2.031-.36-.679-.807-1.358.036-2.032-.43-.674-.484-1.344-.552-2.003-.195-.659-.234-1.309-.99-1.943-.262-.529-.836-1.059.55-1.588-.125-.529.322-1.059-.074-1.588-.006-.529.459-1.057.111-1.585-.221-.528.279-1.055-.07-1.582.356-.526-.327-1.052-.547-1.577-.274-.525-.01-1.048.146-1.57.652-.783.123-1.564.223-2.34.431-.777-.406-1.549.161-2.318.547-.768-.015-1.532.766-2.29.628-.758.46-1.511,1.32-2.258.778-.478.35-.949.633-1.415.601-.466-.087-.926-.634-1.381.537-.456.561-.907-.013-1.356.715-.449.755-.895-.263-1.339.577-.445.293-.888-.036-1.331.667-.443.951-.886,1.994-1.331.661-.667.744-1.337-.038-2.014.95-.678.359-1.363.717-2.061.855-.698-.658-1.408.473-2.136.711-.728-.566-1.472.559-2.239.518-.79.799-1.581.195-2.373.273-.792-.343-1.585-.198-2.378.245-.793.698-1.588-.395-2.383.074-.795-.71-1.59-.053-2.387-.076-.796.017-1.593-.23-2.39-.347-.797-.415-1.594.235-2.392-.007-.798-.352-1.596.17-2.394.398-.798.219-1.597-.262-2.395-.935-.798-.722-1.597-.373-2.395-.364-.798-.125-1.597-.575-2.395-.187-.798-.019-1.596-.601-2.393-.128-.798.563-1.595-.732-2.392-.269-.797-.041-1.593-.441-2.389-.054-.796,1.39-1.591-.183-2.385-.02-.794.509-1.588.452-2.381.136-.793-.044-1.585.24-2.376.28-.512.359-1.009.092-1.49.344-.481.372-.947.306-1.396.554-.449.275-.881-.129-1.295.742-.414-.292-.811-.232-1.188.909-.378-.548-.736.972-1.075,1.017-.339.855-.658.952-.955,1.215-.447.394-.846.879-1.195,1.996-.349.424-.647,1.644-.891,2.068-.122-1.259-.23-.663-.324.114-.094.861-.174,1.529-.24,1.832-.132,3.039-.205,2.595-.217,2.462-.004,2.256,0,1.56.013,2.287.013.35.034.483.064-.784.06-.053.154-.535.284,1.443.065.211.14.562.223,2.082.084.917.177.692.279-.692.205-1.421.448,1.138.73,1.242.282-.021.605,1.194.968,1.114.363.19.768-.139,1.216.654.575-1.278,1.186.865,1.808.439.623.363,1.258-.369,1.881-.017,1.06-.02,2.101-.374,3.125-.576,1.024.229,2.032-1.252,3.027-1.014.995-.389,1.976-.818,2.947-1.254.61-.274,1.223-1.382,1.84-.833.617-.379,1.238-.817,1.862-.842.624-.519,1.252-.218,1.884-.681.632-.949,1.267-1.166,1.906-.931Z"/><path class="cls-1" d="M188.879,28.985c.39.779.783.201,1.176.394.393.711.788.228,1.181-.794.394-.953.787-1.295,1.177-.976.391.849.78.204,1.165.942.771-.748,1.528-1.312,2.261.353.732-1.047,1.44.987,2.111.709.671,2.49,1.306.233,1.893,1.151.587-.405,1.127.109,1.607,1.48.481-.279.902,1.464,1.253,2.039.351-.078.632,2.154.832,2.23.142.143.238,1.939.294,1.836.055.614.07,1.154.049,1.854-.021,3.089-.078,1.96-.164,1.886-.087-.055-.204,2.66-.345,1.817-.142.464-.308,1.525-.495,1.726-.093,1.141-.191,1.59-.293,2.331-.102.58-.209.206-.319-.461-.213,1.912-.432,1.84-.637,1.824-.205-.653-.396,1.311-.551,1.791-.155,1.371-.275,1.701-.339,1.972-.063.401-.07.799,0,1.632.071-.009.219.424.466,1.579.247.293.593.181,1.058,1.314.559-.747,1.218,1.149,1.917.943.699.549,1.438.867,2.158.376.863.285,1.728,1.2,2.594.777.866-.41,1.732.533,2.6-.315.867.699,1.736.281,2.604.15.869.076,1.737-.414,2.607.042.869.111,1.738-.044,2.607-.065.869-.66,1.738,1.24,2.606-.013.868-.123,1.736-.585,2.604-.098.867-.453,1.734-.99,2.599-.25.865-1.088,1.73.231,2.593-.507.863.142,1.725-.324,2.585-.11.43.372.86.838,1.289.508.429-.702.858.179,1.286-.763.428-.884.856.681,1.283.255.427,1.18.854.102,1.28-.884.852.441,1.77-.367,2.643-.322.436.02.862-.547,1.262-.159.4-.2.775,1.045,1.111.918.373,1.897.656-.743.885,1.117.229-.841.404,2.421.56,1.343.183.386.35.853.502,1.67.152.644.288,2.559.408,1.583.12-.311.225,1.036.313,1.66.089.311.161,1.526.218,1.675.057,1.577.097,1.45.121,1.685.024,1.174.032.913.024,1.689-.007.697-.032,1.543-.127,1.514-.094,1.189-.258,1.953-.544,1.381-.327.347-.778.474-1.285,1.099-.507.531-1.069.536-1.616.653-.798.196-1.601-.338-2.409.496-.808-.101-1.619,1.196-2.435.778-.816.03-1.635.999-2.458.441-.823.063-1.649.564-2.478.321-.829.897-1.66-.022-2.493.052-.833.246-1.669.799-2.505.254-.837-.377-1.675-.024-2.514,0-.839.39-1.679.276-2.519-.093-.63.062-1.26.561-1.89-.126-.63-1.173-1.26-.296-1.889-.171-.629,1.122-1.258-.607-1.886-.333-.628-.829-1.256.17-1.882-.134-.313-.442-.626-1.103-.939-1.398-.313.758-.625.022-.938.709-.625.526-1.248.641-1.87.076-.622-1.071-1.242-.241-1.861-.469-.619-.785-1.236-.839-1.851-.265-.82-.786-1.639-.855-2.456-.545-.817-.739-1.633-.45-2.448-.58-.407.515-.815.222-1.222-.192s-.814-.866-1.22-.416c-.813-.126-1.625-.183-2.437-.629-.812-.04-1.623.547-2.434-.603-.811.549-1.622-.501-2.432-.691-.811-.213-1.621-.496-2.432-.653-.811-.038-1.622-.387-2.434-.639-.812-.129-1.624-1.191-2.437-.709-.813-.563-1.626-.443-2.441-.527-.815-.226-1.63-.175-2.447-.241-.817.601-1.635-.321-2.455-.88-.82-.186-1.641-.854-2.464-.5-.411.823-.823.656-1.236.343-.412.411-.825-.505-1.239-.793-.792-.501-1.591-.941-2.394-.441-.803-.137-1.611-.872-2.422-.224-.81.348-1.623.06-2.435.003-.812.048-1.625-.833-2.435-.27-.81-.388-1.618.413-2.421.065-.803.374-1.601,1.053-2.393.224-.791,1.142-1.576.651-2.351.195-.775-.315-1.541.266-2.296.811-.755,1.66-1.498,1.71-2.227.822-.365-.645-.726.515-1.083,1.192-.357.253-.711-.009-1.061-.131-.434.601-.863-1.371-1.291.53-.428-.003-.854.079-1.282,1.057-.428,2.594-.858.735-1.293.976-.435-.629-.875-.606-1.324.489-.449-2.177-.906,2.847-1.375.564-.469.724-.95-1.218-1.445.25-.658,1.204-1.301-.648-1.922.031-.621.692-1.219.291-1.786-.714-.567-.391-1.103.474-1.6-1.058-.497-1.071-.954-.457-1.364-1.377-.41.385-.772-2.431-1.077-1.709-.306-1.097-.555-1.95-.741-1.809-.185-.219-.306.281-.354-1.571-.048-3.022-.023-.998.084-2.361.106.386.272-1.528.491-1.551.219-.932.49-1.745.808-2.11.318-1.285.681-1.476,1.084-1.647.403-1.491.846-.728,1.321-1.435.475.983.983-1.312,1.517-1.816.534-.621,1.094-.911,1.674-.586.58.375,1.178-1.178,1.79-.915.612-.767,1.236.569,1.867-.707.63-.788,1.267-.558,1.908-.491.641.637,1.287-.358,1.938-.381.65.19,1.304,1.409,1.961-.051.657-.367,1.317-.234,1.978-.284.662-.109,1.325.441,1.989-.142.664.248,1.329.026,1.994.167.665.147,1.33.244,1.993.074.664.157,1.326-.127,1.986.134.76-.524,1.519.045,2.279-.035.76-.273,1.519.441,2.279.311.76.354,1.519-.264,2.279.178.76-.057,1.519-.025,2.279.099.76.096,1.519-.557,2.279-.12.76.019,1.519.232,2.279.397.76.493,1.519.284,2.279.402.76.113,1.519.55,2.279-.125.505.255,1.058.241,1.603-.05.545-.224,1.081-.359,1.553-.382.471-.265.878.007,1.162-.388.285.045.447-.758.431-1.652-.027-.349-.619-1.143-1.181-2.182-.4-.842-.803.203-1.2-1.364-.397-1.106-.789-1.087-1.166-1.404-.377-.718-.74-.59-1.081-1.162-.34-1.408-.658-.884-.945-1.826-.287-.492-.542-.323-.758-1.497-.216-.023-.392-.567-.521-1.825-.21-.694-.247-1.724-.141-2.296.106-.554.355-1.531.715-1.945.36-.7.832-1.873,1.385-1.079.552-.719,1.185-.189,1.868-1.136.682.14,1.414-1.005,2.164-.917.375-.536.755-1.32,1.135-1.319.38.146.762.58,1.139.468,0-.381.349-.379.872-.269.523-.072,1.22.192,1.918-.239.697.412,1.395-.46,1.918-.52.523-.534.872-.88.872.013Z"/><path class="cls-1" d="M153.034,94.628c.338-.945.749.235,1.21-1.405.461-.48.973.262,1.511-1.454.538.247,1.102-1.782,1.669-.985.567-.331,1.137-1.424,1.686-1.373.549-1.099,1.077-1.42,1.56-1.291.483-.484.922-1.2,1.293-1.526.33-1.627.6-.974.772-1.623.172-1.287.247-2.525.186-1.767-.06-1.236-.273-.123-.609-1.68-.336-1.134-.797-.669-1.353-1.119-.802.298-1.702-.291-2.558-.138-.786.266-1.572-.773-2.356.243-.783.029-1.564.086-2.34.764-.388.617-.774.456-1.159.007-.385-.41-.769-.529-1.15.872-.382.313-.762,1.865-1.139,1.203-.378.134-.753.352-1.127-.365-.747-.891-1.484.458-2.209.848-.725-.314-1.439,1.273-2.138,1.497-.699-.575-1.384.354-2.053,1.382-.669.683-1.321,1.281-1.954,1.508-.422,1.245-.836.149-1.241.771-.405-.357-.801,1.168-1.188,1.419-.386.032-.763,2.713-1.13,1.36-.366,1.41-.722.673-1.068,1.012-.345-.176-.679-.418-1.001,1.205-.322.093-.633.174-.931,1.325-.502,1.92-.941,3.699-1.321,2.21-.379-.557-.698,1.264-.959,2.241-.261.83-.464,2.76-.61,2.5-.147,1.487-.237,1.055-.274,2.004-.037,1.461-.02-.011.049,2.247.069,1.017.189.04.36,2.167.17,1.674.39.195.658,2.21.267-.44.582,1.507.943,1.973.36-.35.766.895,1.215,2.044.449.522.941.614,1.475,1.765.533,1.779,1.108.31,1.722,1.759.614,2.389,1.266,1.196,1.956,1.534.688.982,1.39.524,2.104,1.403.715,1.149,1.442,1.943,2.18,1.1.739,1.428,1.488-.13,2.248.928.76-.199,1.529,1.105,2.307.741.778.621,1.564-.511,2.357.558.793.558,1.594.158,2.399.453.806.197,1.617.121,2.433.384.816.136,1.635-.286,2.458.145.822.573,1.648,1.301,2.474.621.827-.476,1.654.002,2.482-.396.828.483,1.655.639,2.482.361.826.867,1.651-1.164,2.473-.264.411.534.821.732,1.23.705.409.169.818-.353,1.225-.649.814.331,1.625.38,2.429.09.647-1.297,1.304.188,1.952.026.648.52,1.286-.233,1.895-.351.487-.26,1.007-.252,1.543-1.033.536-.554,1.089-.916,1.643-.94.554-.651,1.108-1.079,1.647-1.606.539-1.554,1.063-2.476,1.555-1.411.492-.691.953-1.336,1.367-1.667.414-.877.78-1.738,1.083-1.228.988-.82,1.48-2.807,1.829-4.193.174-.889.313-1.857.46-2.657s.302-1.485.509-1.653c.207-.436.467-1.445.824-1.953.356-1.092.809-1.621,1.403-2.038.454-.976.826-1.304,1.142-1.512.316-.413.576-.32.806-1.698.231-.366.432-2.135.631-1.995.199.515.395-2.319.614-1.482.22-1.445.464-.884.758-1.598.147.698.307.833.483.429.176-1.029.367-.798.578-1.804.422.367.921.09,1.524-1.057.603-.511,1.309-1.452,2.146-.642.473-.309.965.274,1.451-.228.243-1.103.486-.685.724-1.065.238.262.473.357.701,1.499.456-.502.885-1.79,1.265.198.38-1.035.712,2.173.972,1.443.162.403.29,1.651.394,1.945.104.303.182.661.244-.303.123,1.097.178,1.949.229,1.782.029-1.429.055-1.498.079.097.024-.129.046-.223.067,1.882.042,1.379.079,2.336.119,2.147.04,2.682.083-.006.135,2.036.052,1.421.114,1.191.193,2.137.079,2.986.174-.23.293,2.064.119-.214.262.329.435,1.962.235,2.305.549,1.807.922,2.644.373,1.191.807.982,1.284,2.488.209.868,1.036-.25,1.811,1.986.387.993.762,1.878,1.039,2.3s.458.381.458-.477c.563.547,1.161,2.076,1.785,1.172.624.269,1.274.484,1.941.896.668.549,1.353-.208,2.047.658.694-.086,1.398,1.341,2.102.459.725-.608,1.455.058,2.189.173.734-.53,1.471.535,2.209.255.738-.112,1.477.229,2.213.078.737-.695,1.472.064,2.202-.331.73-.025,1.456-.714,2.175-.427.719-.254,1.43-.251,2.131-.518.701-.466,1.393.05,2.072-.803.679-.128,1.346.389,1.997-.842.651-.389,1.288-.972,1.906-1.088.618-.498,1.219-.533,1.799-1.267,1.161-1.22,2.227-1.863,3.181-3.058.477-.716.926-1.75,1.345-2.283.419-.645.808-1.646,1.164-1.355.356-.167.68-1.047.969-2.069.289-.371.543-.992.76-1.981.217-1.43.397-1.073.538-2.027.141-.21.242-.206.302-2.268.06-.514.078-.715.053-2.177-.025-.688-.095-2.828-.21-2.198-.121,1.832-.31-2.508-.627-2.261-.316-1.065-.76.098-1.391-1.788-.329-.43-.686.466-1.062-.945-.376-.271-.77-.996-1.173.193-.807,1.087-1.649,1.307-2.45.11-.7-1.013-1.395-.603-2.086.476-.691.185-1.377.194-2.059.313-.341-1.252-.681-.721-1.02-.769-.339.448-.677.48-1.014.937-.674.78-1.345-.549-2.012,1.009-.667-.581-1.332.789-1.993.857-.661-.665-1.32.141-1.976.579-.307-.391-.774-1.417-1.34.623-.566.1-1.232,1.132-1.937.941-.705.954-1.448,1.144-2.169.934-.721.934-1.421.244-2.038.602-.617-.58-1.151,1.364-1.542.134-.391-2.754-.638.561-.682-1.227-.054.971-.086-1.787-.108-2.006-.022-1.446-.034-.194-.047-2.197-.014.567-.029-2.157-.058-1.793-.029-1.054-.072-4.252-.141-2.495-.069-1.974-.163-1.681-.296-2.128-.132-1.534-.302-1.096-.522-1.979-.271-1.21-.674-2.175-1.204-2.261-.265-.755-.562-1.356-.89-1.493-.328-.232-.687-.228-1.077-.074-.453-.862-.94-1.256-1.451-.377-.511-.94-1.045.714-1.593-.231-.274,1.331-.551,1.401-.831.855-.28-.38-.562-1.11-.844-.76-.566-.2-1.135.516-1.699-.101-.564.381-1.122-.372-1.664.018-.542-.722-1.069-.173-1.57-.314-.541-.17-1.075-.43-1.604.045-.529-.052-1.052-.385-1.571-1.05-.519-.596-1.033.059-1.543-.63-.51,1.091-1.017-.422-1.52-.684-.503-.312-1.004-1.17-1.502-.725-.498-.338-.994-1.041-1.489-.744-.715-.238-1.432-.362-2.153-1.014-.721-.616-1.445-1.198-2.175-1.179-.729-.702-1.463-1.535-2.204-1.311-.74-.342-1.486-1.135-2.24-.67-.753-.522-1.514-1.023-2.283-.792-.769-1.246-1.547-.645-2.334-.563-.787-.999-1.584-.479-2.392-.463-.808-.302-1.626.478-2.457.151-.488.248-.94.183-1.361.895-.42.747-.808-.225-1.167-.36-.717.591-1.315,1.532-1.816.84-.502-.403-.906-.193-1.237,1.212-.33-.196-.585,2.026-.788,1.705-.202.841-.352.248-.47,1.853-.118,1.332-.205,1.142-.283,2.018-.078.377-.147,2.668-.228,2.109-.081.116-.175-.503-.303,2.127-.114.954-.206,1.073-.283,1.644-.078-.365-.141.849-.197,2.135-.056.374-.106,1.494-.156,1.901-.05-.334-.101.785-.159,1.9-.059-.165-.125.771-.208,1.892-.082,1.198-.18.529-.301,1.878-.18,1.052-.446-.051-.787,2.642-.341.004-.757,1.406-1.236,1.944-.479.809-1.023,1.967-1.618,1.58-.596.753-1.244,1.163-1.934,1.121-.46.627-.938-.89-1.432.345-.494-.598-1.002.696-1.523.458-.521-.713-1.053-.078-1.594-.066-.541-.639-1.091-.262-1.646.105-.555,1.057-1.115-.442-1.677.097-.562.636-1.126.395-1.689-.794-.524-.804-1.059-.356-1.441-.76-.428-.24-.608.495-.75-1.661-.14-.777-.256-1.602-.336-1.973-.08-1.721-.122-.939-.113-1.65.009-.448.07-.885.196-1.855.126-1.24.318-.515.59-1.624.07-.821.145-1.003.224-.41Z"/><path class="cls-1" d="M409.125,24.099c.585.758,1.173.473,1.764-.35.591-.61,1.186-.937,1.784-.905.598-.876,1.199-1.734,1.804-.799.605-.35,1.212.332,1.824-.092.611.338,1.226-.542,1.844-.052.618-.086,1.24-.468,1.865-.329.799-.067,1.6.597,2.403.427.401-.895.803-.452,1.205-.939.402-.696.805.277,1.207.723.806.787,1.612.364,2.419.281.807-.517,1.615.606,2.422.349.538.322,1.076.033,1.614.427.538-.625,1.076-.223,1.613.079.537.72,1.074.229,1.61.349.536-.085,1.072-.472,1.607.125.535.473,1.069.406,1.602.414.533-.611,1.065-.176,1.596-.06.681-.206,1.36-.27,2.036.253.676.37,1.351-.018,2.023-.22.673.165,1.344-.19,2.013-.229.67-.052,1.338.01,2.006-.103.668-.544,1.335-.725,2.002-.568.667.029,1.334.22,2.001.245.667-.382,1.335-.416,2.003-.248.668-.183,1.338.098,2.008.309.492.104.998.1,1.513.154.515-.333,1.038-.218,1.564.199.526.085,1.054.117,1.578.132.524.226,1.044.019,1.554.49.51,1.034,1.01.263,1.493.506.484-.277.951-.111,1.395.558.718.997,1.276.226,1.702,1.092.426,1.665.718,1.541.904,1.717.186.491.264,1.103.262,1.353-.002,1.304-.086,1.396-.224,2.388-.138.808-.332,1.423-.554,2.287-.222,1.626-.473,1.281-.728,1.86-.254,1.247-.511,1.704-.745,2.177-.234.384-.445.42-.607,1.85-.161.497-.322,1.425-.456,2.099-.135.599-.243,1.466-.3,1.774-.057.689-.062,1.249.009,1.831s.219,1.183.47,1.954c.272.685.64,1.301,1.086,1.839.445.37.968,1.246,1.549,1.375.581.671,1.221.007,1.9,1.005.679.131,1.399.016,2.139.889.74-.261,1.501,1.024,2.264.573.763.029,1.529-.159,2.277.131.749-.093,1.481,1.413,2.178.041.697-.13,1.358,1.018,1.965-.397.738.521,1.462-1.764,2.167-.657.705-.069,1.389-1.108,2.048-1.039.659-.83,1.291-1.424,1.891-1.527.6-.446,1.167-.931,1.695-1.319,1.056-1.108,1.956-2.358,2.648-3.703.678-1.316,1.094-2.635,1.318-3.956.224-1.691.254-3.114.158-3.971-.048-.606-.128-1.252-.23-1.921s-.228-1.363-.369-2.063c-.14-.826-.296-1.623-.457-2.213-.162-.863-.329-1.381-.495-1.784-.166-.617-.329-1.275-.482-1.729-.153-.767-.296-1.391-.419-2.28-.244-.689-.323-2.608-.344-4.232-.021-1.663.015-2.462.001-4.511-.014-.731-.078-3.412-.301-4.399-.223-.874-.603-3.042-1.25-3.896-.647-1.024-1.559-2.045-2.846-3.002-.546-.608-1.119-.463-1.712-.952-.594-.969-1.208-.417-1.838-.806-.63.114-1.277-.665-1.934-.645-.657-.824-1.325-.098-1.998-.579-.673.138-1.352-.224-2.031-.26-.679-.237-1.358-.136-2.032-.531-.674-.044-1.344-.303-2.003-.474-.659-.298-1.309.157-1.943.017-.794-.564-1.588-.792-2.382-.506-.794.658-1.587-.101-2.379.411-.792.478-1.582.931-2.371.324-.788-.005-1.575.104-2.358.154-.783-.094-1.564-.091-2.34.056s-1.549.439-2.318.922c-1.537.928-3.055,1.365-4.549,1.406-.956-.367-1.885.567-2.796,1.138-.912.276-1.807.524-2.696,1.291-.889.091-1.773,1.112-2.662,1.328-.667-.029-1.337.687-2.014,1.094-.678.925-1.363-.298-2.061.711-.698-.294-1.408.357-2.136.76-.728.652-1.472.412-2.239.47-.79.082-1.581.395-2.373.335-.792-.561-1.585-.208-2.378.184-.793.087-1.588.209-2.383.02-.795-.575-1.59.827-2.387-.022-.796.306-1.593.015-2.39-.05-.797.737-1.594-.574-2.392-.304-.798-.08-1.596-.371-2.394-.075-.798-.183-1.597-.399-2.395-.462-.798.221-1.597-.072-2.395.207-.798.766-1.597-.844-2.395-.759-.798-.147-1.596-.08-2.393-.131-.798.287-1.595.297-2.392-.266-.797-.321-1.593-.237-2.389-.124s-1.591.255-2.385.049c-1.589-.904-3.175.762-4.758.417-1.023.56-1.988.71-2.886.898-.898.431-1.728,1.384-2.483,1.651-.378,1.019-.736.464-1.075,1.054-.339-.014-.658.974-.955,1.178-.447.681-.846,1.502-1.195,2.024-.349.988-.647,1.138-.891,2.04-.244.478-.433,1.747-.565,2.205-.132.971-.205,1.45-.217,2.204-.016.974.099,1.987.361,2.947.522,1.92,1.625,3.63,3.416,4.399,1.149.493,2.444.536,3.689.422,1.06-.097,2.101-.3,3.125-.576,1.024-.276,2.032-1.333,3.027-1.014.995-.124,1.976-.384,2.947-1.254.61-.531,1.223-.908,1.84-1.173s1.238-.012,1.862-.502c.624-.121,1.252-.978,1.884-.399.632-.156,1.267-.522,1.906-1.212Z"/><path class="cls-1" d="M433.257,27.849c.781-.276,1.57.054,2.357-.4.787.537,1.572.43,2.343-.035.771.722,1.528-.217,2.261.113.732.144,1.44.137,2.111.95.671.166,1.306.867,1.893,1.115.587.834,1.127,1.098,1.607,1.515.481.456.902,1.388,1.253,1.925.351,1.25.632,1.077.832,2.344.142.536.238,1.169.294,1.7.055.632.07,1.358.049,1.991-.021.776-.078.393-.164,1.979-.087.826-.204,1.153-.345,1.725-.142.631-.308,1.474-.495,2.067-.186.881-.392.886-.612,1.529-.213.266-.432,1.742-.637,1.663-.205.407-.396-.302-.551,1.953-.155.05-.275,1.8-.339,2.064-.063.72-.07,1.355,0,1.541.071.816.219-.066.466,1.579.247.757.593,1.797,1.058,1.314.559.289,1.218.407,1.917.943.699,1.188,1.438,1.104,2.158.376.863-.073,1.728.007,2.594.387.866.274,1.732.26,2.6.075.867-.408,1.736.177,2.604.192.869.808,1.737.177,2.607,0,.869-.942,1.738-.901,2.607-.005.869.701,1.738.543,2.606-.073.651-.515,1.302-.26,1.953-.034.651.072,1.301.384,1.951-.202.65-.685,1.299-.905,1.948-.676.649.522,1.297-.343,1.944.289.647.335,1.294-.358,1.939-.479.646-.509,1.29-.477,1.934-.059.644-.861,1.287.424,1.928-.388.642-.551,1.282.715,1.921-.302.852-1.377,1.77-.238,2.643-.322.873-.018,1.701.514,2.373.759.373.684.656.83.885,1.117.229.698.404,2.045.56,1.343.183,1.782.35.671.502,1.583.152,1.353.288,1.731.408,1.67.12.799.225.863.313,1.57.089.14.161,1.286.218,1.765.057.658.097,1.264.121,1.685.024.527.032.263.024,1.689-.007-.052-.032.216-.127,1.514-.094.549-.258,1.822-.544,1.381-.327.903-.778,1.428-1.285,1.099-.507-.222-1.069.249-1.616.653-1.596-.022-3.212,1.276-4.844,1.273-1.632.89-3.279.313-4.936.762-1.657.528-3.325.125-4.999.307-.837.044-1.675.217-2.514.22-.839-.126-1.679.022-2.519-.313-.84-.202-1.68-.241-2.52-.264s-1.679-.196-2.517-.172c-.838.115-1.675.049-2.511-.156-.836-.046-1.669-.068-2.501-.567-.832.483-1.661.015-2.488-.451-.827-.204-1.65.32-2.47-.502-.82.123-1.639.197-2.456-.422-.817-.088-1.633.087-2.448-.704-.815.321-1.629-.273-2.442-.661-.813-.472-1.625.044-2.437-.577-.812-.355-1.623-.533-2.434-.643-.811-.4-1.622.112-2.432-.65-.649-.709-1.297-1.304-1.946-.686-.649-.647-1.297-.023-1.946-.351-.649-.301-1.298.834-1.948-.36-.65-.825-1.3-1.506-1.95-.647-.651-.642-1.302-1.25-1.953-.42-.652-.696-1.304-1.005-1.957-.529-.653.234-1.307-.024-1.962-.443-.655-.303-1.31-.366-1.967-.418-.657-.044-1.314.32-1.973-.389-.659.331-1.319.047-1.98-.356-.792.035-1.591.007-2.394-.525-.803-.466-1.611-.509-2.422-.14-.81-.062-1.623-.634-2.435-.445-.812.102-1.625.117-2.435.177-.81-.094-1.618-.053-2.421-.004-.803.155-1.601.663-2.393.294-.791,1.084-1.576.823-2.351.718-.775.677-1.541.25-2.296.289-.755.135-1.498.198-2.227,1.003-.729.767-1.445.799-2.144.88-.434-.164-.863-.033-1.291.291-.428-.003-.854.134-1.282,1.296-.428.289-.858,1.359-1.293.969-.435-.622-.875.069-1.324.496-.449.428-.906.213-1.375.389-.469.006-.95.911-1.445.426-.658.321-1.301.106-1.922.11-.621.05-1.219-.889-1.786-.793-.567.088-1.103-.789-1.6-1.06-.497.108-.954-1.041-1.364-1.375-.41-.12-.772-1.833-1.077-1.665-.306-.381-.555-1.643-.741-1.853-.185-.78-.306-1.553-.354-1.956-.048-1.245-.023-1.058.084-1.976.106-.702.272-1.257.491-2.155.219-1.24.49-1.067.808-1.506.318.022.681-.852,1.084-1.52.403-.411.846-.97,1.321-1.562.475.146.983-.859,1.517-1.384.534-1.113,1.094-1.206,1.674-1.018.58-.625,1.178-1.745,1.79-1.144.612-.826,1.236-1.53,1.867-.478.63.641,1.267.13,1.908-.603.641.255,1.287.832,1.938-.268.65.838,1.304-.294,1.961-.283.657-.148,1.317-.139,1.978-.052.662-2.018,1.325.325,1.989-.198.664-.421,1.329.727,1.994.223.665.612,1.33.101,1.993-.045.664-.05,1.326.396,1.986.253.76,1.397,1.519.291,2.279.228.76-.391,1.519-.283,2.279.049.76.237,1.519.193,2.279.459.76-.578,1.519.093,2.279-.182.76.56,1.519-.131,2.279.077.76.584,1.519-.049,2.279.199.76.645,1.519-.094,2.279.258.76.432,1.519-.119,2.279.019.505-.461,1.058-1.082,1.603-.05.545,1.035,1.081-1.433,1.553-.382.471.101.878-.438,1.162-.169.285-1.057.447-.793.431-1.871-.027-1.508-.619-2.831-1.181-2.182-.4-.457-.803.619-1.2-1.364-.397-.291-.789-2.447-1.166-1.404-.377-1.486-.74-.772-1.081-1.42-.34-.228-.658-.761-.945-1.568-.287-.276-.542-1.126-.758-1.493-.216.195-.392-.767-.521-1.829-.21-.84-.247-1.411-.141-2.472.106-.583.355-1.257.715-1.769.36-.537.832-.627,1.385-1.126.552-.667,1.185-1.503,1.868-1.089.682-.859,1.414-.906,2.164-.841.75.178,1.519-.606,2.275-.927,0-.216.349-.23.872.088.523-.097,1.22-.96,1.918-.595,1.395-.312,2.789-.552,2.789-.508Z"/><path class="cls-1" d="M402.236,94.628c.338-1.797.749-.763,1.21-1.688.461-.315.973-2.437,1.511-1.17.538-.009,1.102-1.846,1.669-1.182.567-1.452,1.137-.814,1.686-1.177.549-.284,1.077-1.079,1.56-1.291.483-1.36.922-.763,1.293-1.526.33-.732.6-1.043.772-1.623.172-.775.247-.708.186-1.767-.06-.37-.273-1.284-.609-1.68-.336-1.792-.797-.456-1.353-1.119-.401-.926-.826-.848-1.259-.781-.432.045-.871.4-1.299.644-.524-.198-1.048.391-1.572.215-.523-.259-1.046.618-1.567.374-.521-.076-1.04-.219-1.557-.079-.517-.047-1.032.416-1.544.995-.512.287-1.021-.245-1.527.433-.506.534-1.008-1.172-1.505.786-.373-1.077-.744-.644-1.112.025-.368.76-.734,1.175-1.096,1.123-.725.896-1.439,1.932-2.138,1.196-.35.789-.696.896-1.038,1.408-.342.315-.681.21-1.015-.105-.669-.341-1.321,1.403-1.954,1.587-.634-.501-1.248,1.817-1.842,1.663-.594,1.952-1.167.542-1.716,1.692-.55,2.259-1.076.113-1.577,1.591-.501,1.814-.976.706-1.423,2.146-.502.141-.941,2.066-1.321,2.21-.379,1.608-.698,3.372-.959,2.241-.261.036-.464,2.482-.61,2.254-.147.433-.237,1.53-.274,2.25-.037.392-.02,1.069.049,2.001.069,1.006.189,1.37.36,2.413.17-.45.39,1.238.658,1.684.267.591.582,1.489.943,2.499.36.701.766,1.244,1.215,1.886.449.757.941,1.874,1.475,1.923.533,1.204,1.108.861,1.722,1.72.614.507,1.266.706,1.956,1.573.344.873.691,1.319,1.042,1.548s.705.24,1.062.244c.715.847,1.442.42,2.18.712.739-.239,1.488.535,2.248.78.76-.152,1.529,1.112,2.307.889.778.566,1.564.676,2.357.702.793-.173,1.594-.187,2.399.309.806-.315,1.617-1.15,2.433.054.816.15,1.635.546,2.458.475.822.051,1.648.025,2.474-.188.827-.097,1.654.537,2.482.413.828-.36,1.655.13,2.482-.004.826.091,1.651.052,2.473.1,1.643.277,3.275-.188,4.884.146.647-.256,1.304.39,1.952.026.648-.034,1.286-.13,1.895-.351.974-.354,2.079-1.076,3.186-1.972,1.107-.855,2.218-2.055,3.202-3.017.492-.563.953-.926,1.367-1.328.414-.239.78-.763,1.083-1.566.494-.166.864-1.689,1.154-2.106.29-.466.5-1.459.675-2.087.174-1.038.313-1.914.46-2.295.147-.768.302-1.322.509-2.015.207-.327.467-1.189.824-2.231.356-.668.809-2.389,1.403-1.759.454.395.826-.955,1.142-1.32.316.143.576-1.378.806-1.891.231.359.432-.482.631-1.703.199-.827.395-.808.614-1.774.22-.022.464-.76.758-1.676.294-.722.639-.591,1.061-1.297.422-.505.921-.515,1.524-1.057.603.249,1.309-.73,2.146-.642.473.355.965-.409,1.451-.095.487.375.969.196,1.425.3.456.134.885-1.523,1.265.468.38.651.712.293.972,1.173.323.045.515,1.017.638,1.642.123.909.178.882.229,1.782.057.86.104.247.145,1.911.042.902.079,1.055.119,2.215.04.661.083.932.135,2.332.052-.949.114.625.193,1.842.079-.098.174,2.689.293,1.929.119.856.262,1.568.435,2.097.235,1.965.549,2.346.922,2.644.373.937.807,2.179,1.284,2.488.104.371.363-.539.693.131.33.503.73,1.084,1.118,1.855.775,1.101,1.498,1.455,1.498,1.823.563.616,1.161,1.377,1.785,1.172.624.408,1.274-1.551,1.941.896.668-.752,1.353-.143,2.047.658.694.168,1.398-.568,2.102.459.725.298,1.455-.29,2.189.095.367.302.735,1.199,1.103,1.148.368-.767.737-.875,1.106-.815.738.092,1.477-.578,2.213.344.737.53,1.472-.014,2.202-.597.73.89,1.456-.491,2.175.013.719-1.487,1.43-2.057,2.131-.958.701.054,1.393-.01,2.072-.588.679-.435,1.346-1.293,1.997-1.057.651-.191,1.288-1.653,1.906-1.118.618-.456,1.219-.01,1.799-1.237.58-1.842,1.137-1.947,1.668-1.446.531-.09,1.036-1.418,1.513-1.612.477-1.601.926-1.146,1.345-1.757.419-.055.808-1.679,1.164-1.881.356-1.634.68-.916.969-1.724.289-.944.543-1.344.76-2.325.217-.193.397-1.156.538-2.023.141-1.612.242-2.165.302-2.272.06-.533.078-1.8.053-2.12-.025-.663-.095-1.967-.21-2.255-.121-.397-.31-1.788-.627-2.261-.158,1.246-.348.735-.578-.185-.229-.824-.498-1.521-.813-1.604-.657-1.255-1.428.568-2.235-.752-.403-.391-.816.784-1.227.762-.412-.319-.822-.243-1.223-.652-.7-.871-1.395.358-2.086.338-.691.106-1.377-.594-2.059.451-.682-.262-1.36-.698-2.034.548-.674.358-1.345,1.456-2.012.629-.667.543-1.332,1.277-1.993.945-.661.264-1.32.199-1.976.491-.307,1.216-.774.195-1.34.709-.566-.357-1.232-.182-1.937.854-.705.014-1.448.324-2.169.874-.721-.437-1.421.16-2.038.661-.617-.748-1.151.055-1.542.306-.391-.81-.638-1.274-.682-1.399-.054-1.882-.086-2.473-.108-2.458-.022-1.012-.034-1.784-.047-1.745-.014.805-.029-.476-.058-1.987-.029.074-.072-.688-.141-2.3-.069-1.186-.163-2.034-.296-2.309-.132-.68-.302-1.275-.522-1.799-.271-.005-.674-2.149-1.204-2.261-.53-1.197-1.187-.518-1.967-1.567-.453-.466-.94-.026-1.451-.478-.511-.166-1.045-.225-1.593-.13-.548.083-1.11.609-1.675.06-.566.071-1.135-.437-1.699-.066-.564.48-1.122.702-1.664.114-.542-.088-1.069-.299-1.57-.411-.541.257-1.075-.101-1.604-.535-.529.064-1.052-.461-1.571-.469-.519-.089-1.033-.562-1.543-.559-.51-.674-1.017-.281-1.52-.755-.503-.523-1.004-.911-1.502-1.13-.498-.034-.994-.719-1.489-.338-.715-.367-1.432-1.006-2.153-1.117-.721.306-1.445-.671-2.175-1.076-.365-.593-.731-1.388-1.098-1.371-.367-.21-.736-.668-1.106.052-.74.551-1.486-1.027-2.24-.663-.753.878-1.514-.621-2.283-.672-.769-.625-1.547-.623-2.334-.683-.787-.37-1.584-.042-2.392-.225-.808.903-1.626-.568-2.457-.087-.488-.32-.94-.59-1.361-.4-.42.774-.808.577-1.167.858-.717-.798-1.315,1.506-1.816.917-.502.029-.906.665-1.237,1.303-.33.68-.585,1.36-.788,1.615-.202-.192-.352.916-.47,1.853-.118,1.667-.205,1.809-.283,2.018-.078,1.701-.147,1.575-.228,2.227-.081.845-.175,1.394-.303,2.009-.114.82-.206,1.674-.283,1.993-.078.614-.141,1.483-.197,1.785-.056.48-.106,1.338-.156,2.037-.05.267-.101,1.278-.159,1.764-.059.202-.125,1.318-.208,1.956-.082.257-.18,1.452-.301,1.815-.18,1.033-.446,2.042-.787,2.514-.341.307-.757,1.498-1.236,2.072-.479.785-1.023.459-1.618,1.693-.596-.23-1.244.417-1.934,1.008-.69-.088-1.421,1.333-2.183.675-.762.01-1.554-.258-2.366.241-.812-.176-1.642-.937-2.481-.383-.839.359-1.686-.642-2.531-.388-.524-.874-1.059-.472-1.441-.76-.428-1.99-.608-2.232-.75-1.661-.14-2.617-.256-1.694-.336-1.6-.08.021-.122-2.235-.113-2.023.009-.838.07.173.196-1.557.126-1.462.318-.234.59-1.922.07-.908.145-.36.224-.41Z"/><path class="cls-1" d="M258.655,5.566c.682-1.333,1.361-.858,2.039-.72.678-.678,1.354-1.004,2.028.178.675-.48,1.348-.142,2.02-.799.672-.414,1.343-.943,2.014.733.67,1.278,1.34.997,2.01.512.669.629,1.339-.986,2.008-.221.669.678,1.339.376,2.008.352.67.24,1.34.409,2.011.175.671.501,1.343.006,2.015.231.673,1.211,1.347.536,2.022.413.833.483,1.668.713,2.504.566.836.173,1.674-.394,2.512.135.839-.383,1.678.265,2.519.07.841.016,1.682.357,2.524.4.842.566,1.685-.083,2.528.482.843.372,1.687.281,2.531-.243.844.555,1.688.828,2.533.305.844-.09,1.689-1.042,2.533-.297.844-.017,1.688.54,2.532.229.844-.089,1.687.398,2.529-.45.842-.017,1.684.003,2.525-.265.841-.19,1.681.51,2.52-.186.839-.192,1.677-.613,2.514-.311.837-1.224,1.672.067,2.506-.369.556-.177,1.111.362,1.666-.229.554.199,1.108.962,1.661-.351.553-1.192,1.105-.066,1.656-.307.551-.156,1.102-.051,1.651-.375.549-.763,1.098-.861,1.646-.504.548.297,1.094,1.209,1.64-.279.663-.509,1.348-1.136,2.038-.481.69-1.757,1.387-.295,2.072-.29.686.109,1.36.452,2.008.112.648.113,1.269.525,1.846.723.479.331.889,1.014,1.241,1.135.352.273.647,1.778.896,1.391.249-.026.452.074.62,1.607.169.074.303,1.363.415,1.675.146,1.872.268,2.2.366,2.694.098-.138.172,1.243.222,1.701.05-.079.076.659.078,1.609.002.178-.02,2.087-.066,2.825-.046.131-.116.562-.21,1.806-.094,1.05-.212,1.422-.354,2.591-.164,1.215-.369,1.243-.677,2.483-.308.905-.719.72-1.294,2.172-.408,1.191-.876.641-1.386,1.13-.51.308-1.063.071-1.64.704-.577-.535-1.178.268-1.786.454-.608.165-1.222.592-1.825.187-.797.411-1.596.469-2.395.181-.799.079-1.599.745-2.398-.051-.799-.846-1.598.328-2.395.013-.797.328-1.592-.061-2.385-.394-.793-.368-1.582-.359-2.368-.415-.786-.046-1.568-.908-2.345-.467-.777-1.034-1.549-1.008-2.315-1.036-.766-.581-1.526.16-2.279-.338-.753.291-1.498-2.305-2.235-.452-.369.598-.735.678-1.099.018-.364-.575-.726.815-1.086-1.421-.19.857-.365,1.954-.526,2.699-.161,2.279-.307.611-.439,2.2-.132.494-.249.526-.353,2.26-.052-1.226-.1,1.14-.145.512-.045.841-.086,1.332-.124,2.179-.076-.01-.138,2.149-.186,2.431-.048.234-.083,1.468-.105,2.551-.021,2.642-.03,1.829-.025,2.526.005.376.023-.17.054,2.469.031,1.357.075.577.131,2.658.056,1.295.126,1.107.207,2.331.041-.13.085-.538.132.764.047.42.097,1.773.15,1.945.106.445.224,2.5.355,2.255.13.944.272.197.426,2.609.154,2.43.319,1.888.497,2.311.177,1.195.366,2.323.565,2.522.2.988.411.673.633,2.334.183.83.374.093.568,1.992.194,1.118.391,1.727.586,2,.195.246.389.97.577,2.106.188-.484.369,2.555.54,1.915.171.752.331,1.438.476,2.307.145.586.275,1.17.385,1.735.11,1.327.2,2.061.265,2.347.066.712.107,1.048.119,1.707.012.498-.005.989-.056,1.925-.051.857-.135,2.07-.257,2.133-.111,2.172-.252,1.038-.4,1.825-.148-.394-.301.606-.436,1.82-.135.801-.251,2.123-.323,2.058-.072.006-.101.89-.061,1.612.04,1.056.183,2.143.414,1.941.231-.129.549,2.199.939,1.54.391-.089.854.692,1.374,1.382.52,1.719,1.098.558,1.718.177.99-.349,1.803-.476,2.487-1.084.342-.238.652-.654.935-1.28.283-.642.541-1.086.778-1.152.237.531.454-.631.657-1.363.203-.115.391.052.572-1.497.27-.313.59-1.847.955-1.991.365-2.346.777-1.331,1.231-2.019.454-1.071.95,1.081,1.486-1.758.536-.411,1.111-2.682,1.722-1.298.611.559,1.258-.522,1.937-.856.68.091,1.392-1.125,2.134-.238.608-.163,1.195-.689,1.755.36.56,1.213,1.094.383,1.593.764.5,1.058.966.337,1.393,1.563.426.402.813.301,1.153,1.011.34,1.446.634,1.938.875,1.933.241.412.429.507.558,1.447.129,1.306.211,1.19.252,2.036.041.155.041,1.35.008,1.566-.034.464-.102,1.003-.198,1.394-.096.597-.22,2.719-.365,2.211-.145.881-.312.994-.494,2.014-.182.124-.379,3.02-.585,1.5-.215.548-.441.903-.68,1.791-.239.439-.49,2.325-.754,1.767-.265.441-.543,1.31-.837,1.728-.293-.139-.602,1.266-.927,1.676-.325.52-.666.46-1.025,1.332-.359,1.146-.736,2.496-1.132,1.804-.396,1.378-.811.012-1.247,1.416-.436-.625-.892.329-1.37,1.339-.478.916-.981-.324-1.505,1.235-.524,1.567-1.068,2.024-1.63.981-.561,1.281-1.139.401-1.73.845-.591.529-1.194-.264-1.805.642-.612,1.409-1.232,1.906-1.856.419-.624-.393-1.253.711-1.882.175-.629.126-1.258.865-1.883.056-.625.05-1.246,1.164-1.859-.518-.698-.099-1.371-.681-2.018-.589-.647-.466-1.268-1.217-1.861-1.258-.594.101-1.161-.724-1.7-1.399-.539-.48-1.051-1.203-1.534-1.501-.483-.54-.937-.636-1.362-1.618-.425-.788-.82-1.214-1.186-1.944-.244-.812-.476-.577-.698-1.261-.223.176-.435.256-.64-1.307-.205-1.259-.401-1.138-.591-1.902-.19.475-.374-.283-.552-.76-.179-1.147-.353-2.05-.523-2.101-.17-.544-.338-.833-.503-.617-.248-.788-.492-1.468-.738-2.053-.246-1.308-.493-1.309-.747-2.047-.163-1.564-.363-1.291-.599-1.326-.237.564-.51-.268-.821-1.197-.311-.342-.659-.855-1.044-1.462-.385-.456-.808-.1-1.269.447-.452-.483-.83-.019-1.149.15-.318.355-.577.922-.791,1.422-.214,1.266-.382-1.005-.521,1.138-.138.508-.247,1.873-.339,1.58-.155.891-.337,1.946-.545,2.322-.208,1.333-.442,1.923-.702,2.078-.259.407-.544,1.422-.852,1.833-.308.978-.641.415-.996,2.35-.355.418-.734.974-1.134,1.948-.4.495-.822.854-1.265,1.949-.443-.509-.907,1.712-1.391,1.721-.484,1.212-.987,1.197-1.51,1.818-.522-.022-1.064.199-1.623,1.31-.559.294-1.136,1.077-1.729,1.802-.593.099-1.204.623-1.829,1.372-.626-.511-1.267.773-1.924,1.242-.753,1.12-1.244.382-2.119.227-.497-.016-1.291.352-1.72.147-.43-.31-.828-1.309-1.201-.912-.56-.654-1.102-.872-1.627-1.539-.524-1.11-1.031-.946-1.519-1.644-.488-1.232-.957-1.157-1.407-1.802-.45-.333-.88-1.582-1.291-1.769-.41-.573-.801-.912-1.171-2.388-.37-.988-.719-1.308-1.046-1.501-.328-1.301-.634-1.532-.918-1.914-.284-.568-.546-1.507-.785-2.227-.239-.617-.455-.451-.648-2.143-.193-.165-.362-2.412-.507-2.18-.145-2.308-.266-1.092-.362-2.233-.096-1.385-.167-1.516-.213-2.205-.034.986-.05-.477-.045-1.67.006-.238.035-.412.092-1.68.057-.326.144-.068.264-1.289.121-.27.276-1.408.472-1.929.196-.837.433-.418.716-1.704.283-.427.613-.268.995-1.035.382-.967.831-.793,1.319-1.165.489.726,1.018-.551,1.562-.438.544.378,1.103.392,1.651-.041.548-.533,1.085-.364,1.586.122.501-.407.965-.927,1.367.18.402,1.406.742,1.014.994,1.768.404.327.533,1.356.583,2.533.05-.177.02,2.932.104,2.673.084.21.39.534.895,2.545.505,1.271,1.21,2.304,2.093,1.243.609,1.175,1.16.164,1.664-.572.504-.98.96-1.682,1.38-1.245.503-3.166,1.007-1.228,1.51-1.52.503-2.801,1.004-1.787,1.5-1.696.496-.805.987-1.267,1.47-1.72.483-.746.958.359,1.421-1.617.463-1.42.916-1.664,1.353-1.686.437-1.077.86-1.909,1.265-1.829.405.11.791-2.563,1.157-1.841.366-.455.71-.079,1.03-1.906.32-1.468.615-1.215.883-1.839.268-1.477.507-.833.716-2.194.206-1.657.379-.934.524-2.083.145.788.261-1.93.352-2.106.092-1.928.159.335.207-2.126.048-1.359.076-.841.089-2.142.013-.497.01-.916-.004-2.033-.014.611-.038-1.101-.069-2.288-.031-1.167-.069-1.7-.109-2.053-.04-.338-.082-1.653-.122-2.296-.04-1.667-.078-1.602-.109-2.32-.031-1.076-.056-.679-.069-2.033-.013-1.294-.016-.956-.003-2.2.013-.702.041-1.866.089-2.132.034.356.079-2.238.131-1.96.053-2.053.114.421.182-1.113.034,1.487.07.463.107.528.037-.8.076-1.286.116-1.892.08.518.165.26.253-1.71.044-1.417.089-1.457.135-2.166.046.353.092.311.139.257.094-1.695.19-.064.286-1.163.144-1.518.288-1.246.428-2.227.07-.544.138-.652.205-1.952.067-.507.131-1.306.193-.418.124-.598.238-.252.336-2.29.098-.114.18-.491.24-2.283.06.148.099-.418.111-2.273.012-.796-.003-1.23-.05-2.263-.047.526-.127-1.565-.245-2.29-.118-.723-.274-1.803-.473-2.198-.572-.538-1.146,1.03-1.721.933-.575.079-1.152-.192-1.731.92-.579,1.143-1.161.115-1.745.892-.585,1.698-1.172.859-1.764.849-.591.434-1.187.207-1.786.675-.6-.118-1.204.601-1.813.832-.609.543-1.224.285-1.844.504-.62.025-1.246.67-1.879.647-.695.809-1.423.6-2.175.3-.751.001-1.524.334-2.308.417-.784.553-1.578,1.598-2.37.271-.792.302-1.583-.008-2.361-.401-.777-.71-1.541-.324-2.28-.473-.739-.481-1.452.696-2.128-.848-.676-1.298-1.315-.443-1.905-1.214-.59-.818-1.131-.236-1.61-1.64-.404-1.276-.742-3.019-1.025-1.622-.283-1.45-.51-1.182-.693-1.905-.182,1.676-.32-.915-.423-1.908-.103-.968-.172-1.983-.216-2.068-.045-1.015-.065-.008-.073-1.94-.007-.631,0-1.862.008-2.022,0,.127.348-.732.812-2.397.232-.405.493-2.25.754-2.44.261-.626.522-1.955.754-2.012.464-1.966.812-2.034.812-2.397Z"/><path class="cls-1" d="M336.61,50.026c-.674-.005-1.085-2.193-1.556-2.281-.235-.789-.485-1.418-.79-1.059-.305-.527-.665.461-1.12-1.063-.41-1.152-.84.203-1.283-.848-.443.738-.899-.773-1.36-.562-.461.073-.927.536-1.391-.705-.464.174-.925-.579-1.377-.461-.631-1.09-1.264-.206-1.897-.608-.633-.942-1.265-.091-1.895-.248-.63.413-1.256-.342-1.877.219-.621.146-1.237.791-1.845.396-.608,1.327-1.208-.038-1.797.678-.589.69-1.168,1.593-1.734,1.076-.489-.256-.968-.782-1.39,1.076-.422.847-.787,1.976-1.049,1.381-.356,1.199-.496,2.231-.486,2.286.009.463.168,1.965.407,2.357.228.252.524.507.878,2.048.354,1.326.767.3,1.229,1.893.462.54.973.563,1.523,1.483.551-1.13,1.141,1.402,1.762,1.618.621,1.218,1.272.761,1.945,1.321.673-.924,1.366,1.382,2.072.821.602.907,1.259.649,1.959.621.7.364,1.444-.268,2.22.252.775,1.347,1.582-.617,2.408.34.826-.056,1.672-.482,2.526-.089.854.637,1.715-.039,2.572.083.857.311,1.71,1.12,2.547.155.837-.226,1.658.195,2.451.304.793-.632,1.558-.415,2.284.528.484.063.949.049,1.394.176.445-.576.868,1.255,1.267,1.008.797.527,1.496.85,2.068,1.899.286.578.54,1.412.758,1.273.219-.038.402.958.547,1.519.132.314.201,1.769.238,1.532.037-.368.043,1.094.049,1.557.009,2.106.02,2.689.034,2.618.014,1.39.029,1.672.047,2.373.017,1.597.036,2.635.056,2.707.02.993.04.755.061,2.305.021.68.042,2.336.063,2.637.021.226.041-.134.061,2.389.02.753.038.812.055,2.517.017,2.747.033,1.799.046,2.518.007,1.213.013,1.983.018,1.96.003-.571.005-1.264.008-1.007.002.465.005.815.007,2.375.008-.905.014-.1.016,1.71.001-.32.001,1.701,0,2.028,0-.091-.002-.202-.005.981-.005,1.537-.014,1.563-.028,2.025-.014,1.3-.032,1.991-.056,2.82-.024-1.093-.052,3.839-.087,2.204-.035,2.596-.075,1.956-.122,2.694-.047,1.373-.1.377-.161,2.314-.06.827-.128,1.805-.203,2.304-.075,2.025-.158,2.573-.249,2.682-.091.535-.191.612-.299,2.536-.108.272-.225,2.195-.352,2.422-.067,1.565-.13,1.179.075,1.543.336.452,1.256,1.773,2.089,1.314.386.072.774.657,1.162,1.032s.777.538,1.166-.233c.779.806,1.561.739,2.344-.278.783-1.59,1.568-1.359,2.353-.302.393-.969.785-.942,1.178-.695s.785.711,1.178.618c.785-1.227,1.569-1.001,2.352-.206.782-.789,1.563-1.069,2.341-.772.778.572,1.553.497,2.324-.73.771-.306,1.538-.397,2.3-.544.742.657,1.308-.398,1.734-1.018.426.584.711-.608.891-1.624.18.053.256-2.504.262-2.016.006-1.38-.056-1.601-.152-2.192-.096.014-.226-.635-.353-1.945-.127-.87-.253-2.214-.34-2.111-.106-.349-.233-2.703-.378-1.96-.144-2.002-.305-1.701-.478-2.131-.173-.958-.358-1.035-.551-1.878-.192-.91-.392-1.805-.594-2.148-.202-.786-.407-1.256-.61-1.58-.203-.634-.403-1.352-.597-2.424-.197-.886-.381-1.289-.554-2.019-.173.112-.335-1.737-.489-2.12-.154-1.426-.3-1.414-.442-2.264-.141-.605-.278-1.223-.412-1.941-.135-.125-.267-1.322-.401-1.97-.134-.664-.269-1.495-.407-2.245-.139-.832-.282-1.479-.432-2.225-.15-1.092-.307-1.626-.474-1.947-.167-.496-.344-1.055-.534-1.548-.19-.657-.393-1.376-.611-2.525-.213-.454-.422-.55-.626-2.05-.204-1.042-.403-.954-.597-1.857-.193-.5-.381-.875-.562-2.209-.181-1.044-.355-1.532-.522-1.722-.167-.449-.325-2.199-.476-2.486-.15-.918-.292-1.097-.424-1.483-.132-.802-.255-1.243-.368-2.014-.112-.764-.214-1.602-.305-2.008-.091-.278-.17-1.2-.237-2.017-.067-.682-.122-1.628-.164-2.074-.054-.851-.071-.73-.054-2.681.018-1.836.07-1.631.153-2.656.084-1.278.199-1.52.343-2.707.144-1.728.316-1.273.514-2.532.198-1.501.421-1.872.667-2.65.246-1.307.514-2.899.801-2.493.288-.839.595-1.653.918-2.535.323-.9.663-1.02,1.016-2.515.353-1.192.72-1.561,1.097-2.53.377-.453.764-1.687,1.159-2.43.395-.101.797.181,1.203-2.447.406-1.351.817-1.824,1.229-2.426.275-.054.55-1.148.825-1.613.275-.426.55-1.391.823-1.589.273-.037.546-.968.816-1.64.27.17.538-1.897.803-1.524.265-1.456.527-1.096.785-1.617.258-.013.512-1.16.762-1.512.409-.768.821-1.477,1.159-2.589.339.026.605-1.756.723-2.718.081-.39.081-1.025.005-1.684-.077.217-.23-1.068-.456-1.606-.226-1.047-.524-1.471-.892-.903-.367-.856-.803-.506-1.303-1.579-.372.242-.757.043-1.154-1.229-.397-1.22-.804.65-1.218-.633-.415-.125-.837-1.169-1.263-.752-.426-.47-.856-.896-1.287-1.168-.431-.602-.862-1.178-1.291-.829-.429-.011-.855-.237-1.275-.66-.583.493-1.178-.138-1.781-.307-.603-.688-1.214.288-1.83-.276-.616-.418-1.237.38-1.859.268-.622-.419-1.246.577-1.868.278-.622-1.29-1.242-.444-1.857.283-.615.102-1.224.09-1.825.205-.595-.697-1.196.415-1.788.326-.592-.036-1.174.457-1.732.59-.558.363-1.091,1.231-1.585,1.443-.494.978-.948,1.014-1.348.869-.4.886-.745,1.034-1.02,1.725-.275.307-.48.917-.601,1.519-.146.91-.154,2.397-.067,2.451.087,1.039.269,2.81.503,1.852.234.184.52,2.087.816,2.13.296.739.601,1.362.874,2.227.272.612.512,1.056.675,2.223.163.75.251.726.22,2.267-.021.164-.077.779-.143.901-.066.088-.143.939-.205,2.234-.062.958-.111.867-.12,1.803-.01-.29.02.233.112,1.309.143,1.421.433,1.892.757,2.304.324,1.393.684,2.939.966,2.248.252,1.494.42.134.522,2.006.102.017.138,1.407.129,1.949-.009,3.059-.065,1.719-.146,1.972-.082.352-.189,2.676-.304,1.87-.114,1.566-.236.959-.344,1.765-.108.75-.204.916-.266,2.188-.051.426-.072.246-.105,1.638-.033.71-.077,1.476-.175,2.279-.097-.331-.248.44-.492,1.85-.244.86-.583.982-1.057,1.593-.408,2.338-.919.15-1.497.655-.289-.538-.594-1.463-.911-1.172-.317.931-.646.987-.983,1.199-.673-.381-1.375-1.633-2.069-.525-.694-.617-1.38-.63-2.022-.73-.641-1.747-1.238.786-1.752-1.001-.514.357-.947-.427-1.26-1.043Z"/></g></svg>